HIERARCHY
ROOT Hips
{
	OFFSET 0.000000 0.000000 0.000000 
	CHANNELS 6 Xposition Yposition Zposition Yrotation Zrotation Xrotation 
	JOINT Lumbar
	{
		OFFSET 0.000000 0.000000 0.000000 
		CHANNELS 3 Zrotation Xrotation Yrotation
		JOINT Neck
		{
			OFFSET 0.000000 0.445665 0.000000 
			CHANNELS 3 Zrotation Xrotation Yrotation
			End Site
			{
				OFFSET 0.000000 0.227535 0.000000 
			}
		}
		JOINT RightShoulder
		{
			OFFSET 0.019635 0.377685 0.194865 
			CHANNELS 3 Zrotation Xrotation Yrotation
			JOINT RightElbow
			{
				OFFSET 0.000000 -0.243375 0.000000 
				CHANNELS 2 Zrotation Yrotation
				JOINT RightWrist
				{
					OFFSET 0.000000 -0.264825 0.000000 
					CHANNELS 2 Zrotation Xrotation
					End Site
					{
						OFFSET 0.006600 -0.176220 0.000990 
					}
				}
			}
		}
		JOINT LeftShoulder
		{
			OFFSET 0.019635 0.377685 -0.194865 
			CHANNELS 3 Zrotation Xrotation Yrotation
			JOINT LeftElbow
			{
				OFFSET 0.000000 -0.243375 0.000000 
				CHANNELS 2 Zrotation Yrotation
				JOINT LeftWrist
				{
					OFFSET 0.000000 -0.264825 0.000000 
					CHANNELS 2 Zrotation Xrotation
					End Site
					{
						OFFSET 0.006600 -0.176220 -0.000990 
					}
				}
			}
		}
	}
	JOINT RightHip
	{
		OFFSET 0.052140 -0.069960 0.075570 
		CHANNELS 3 Zrotation Xrotation Yrotation
		JOINT RightKnee
		{
			OFFSET 0.000000 -0.402270 0.000000 
			CHANNELS 1 Zrotation
			JOINT RightAnkle
			{
				OFFSET 0.000000 -0.404085 0.000000 
				CHANNELS 3 Zrotation Xrotation Yrotation
				End Site
				{
					OFFSET 0.204105 -0.089430 0.008415 
				}
			}
		}
	}
	JOINT LeftHip
	{
		OFFSET 0.052140 -0.069960 -0.075570 
		CHANNELS 3 Zrotation Xrotation Yrotation
		JOINT LeftKnee
		{
			OFFSET 0.000000 -0.402270 0.000000 
			CHANNELS 1 Zrotation
			JOINT LeftAnkle
			{
				OFFSET 0.000000 -0.404085 0.000000 
				CHANNELS 3 Zrotation Xrotation Yrotation
				End Site
				{
					OFFSET 0.204105 -0.089430 -0.008415 
				}
			}
		}
	}
}
MOTION
Frames: 11
Frame Time: 0.02
0.11534 0.02741 -0.09148 17.52292 -28.45069 -13.75263 42.88698 -3.7644 12.4403 -5.29028 6.24107 -0.82517 136.93549 -64.6147 64.16334 5.57664 80.24157 10.62958 -1.93532 -7.76299 27.37008 5.80662 44.55716 -97.7152 4.73075 -3.49272 43.63641 -2.83046 -7.31896 -25.83099 -7.46394 -3.3261 -2.41585 51.68476 13.93054 -3.01453 -32.66241 -6.98563 2.7255 2.06306
0.11531 0.02739 -0.0944 17.26777 -27.38525 -13.39783 41.91141 -4.46063 12.77258 -5.47905 6.34559 -0.82538 137.16973 -64.83633 64.1641 5.53345 81.25325 10.68409 -1.96824 -8.67758 27.92454 6.10509 44.01156 -95.72007 4.5416 -2.7882 42.91977 -3.29743 -6.87954 -26.48512 -7.45866 -3.24706 -2.37199 50.37231 13.67843 -2.4424 -32.85134 -6.97232 2.76436 2.08389
0.11522 0.02719 -0.09729 17.12729 -26.11204 -12.78557 40.70237 -5.29147 13.09456 -5.63714 6.39766 -0.82563 137.1012 -64.9465 64.1644 5.47899 82.58116 10.84089 -2.12216 -9.53306 28.47461 6.20536 43.11858 -93.7713 4.40658 -2.0077 41.98462 -3.97009 -6.37114 -27.16654 -7.441 -3.16853 -2.32802 48.76586 13.24593 -1.69453 -32.99913 -6.96023 2.79595 2.10075
0.11515 0.02706 -0.1002 16.92943 -24.96804 -12.3117 39.63501 -6.0403 13.4092 -5.8098 6.47347 -0.82585 137.16086 -65.1038 64.1644 5.43485 83.72247 10.94519 -2.21604 -10.39661 29.01574 6.38138 42.36721 -91.94608 4.27559 -1.30386 41.17505 -4.52877 -5.89427 -27.81569 -7.42971 -3.09219 -2.28556 47.33943 12.90665 -1.04608 -33.17063 -6.94715 2.83072 2.11937
0.1151 0.02695 -0.10307 16.75009 -23.6758 -11.74892 38.41592 -6.87686 13.77202 -5.98031 6.5499 -0.82611 137.23693 -65.28121 64.16481 5.3814 85.03793 11.07545 -2.33562 -11.34572 29.60656 6.61635 41.67594 -89.52065 4.02825 -0.42416 40.25663 -5.1708 -5.40884 -28.55223 -7.41529 -3.0057 -2.23706 45.71663 12.52237 -0.31579 -33.32243 -6.93589 2.86637 2.13841
0.115 0.02676 -0.10602 16.56121 -22.64293 -11.309 37.45755 -7.56265 14.03362 -6.14765 6.61252 -0.82631 137.2152 -65.38885 64.1649 5.34002 86.06949 11.17531 -2.42775 -12.1005 30.09042 6.6836 40.78303 -88.32996 4.02958 0.11348 39.51157 -5.69023 -4.92954 -29.11162 -7.40453 -2.94028 -2.20095 44.43207 12.18756 0.28633 -33.50398 -6.92122 2.89832 2.15554
0.11482 0.02633 -0.1092 16.31357 -22.38447 -11.27952 37.28224 -7.80003 14.0108 -6.31579 6.64958 -0.82635 137.00609 -65.32338 64.1646 5.33227 86.22595 11.17092 -2.42699 -12.32911 30.29297 6.31692 39.38499 -90.82064 4.76425 -0.3806 39.30728 -5.80909 -4.46308 -29.1782 -7.40593 -2.9348 -2.20046 44.16776 12.03922 0.48778 -33.78928 -6.89589 2.92175 2.16837
0.1146 0.02582 -0.11245 16.05383 -22.39321 -11.38099 37.37656 -7.88086 13.88804 -6.48129 6.67459 -0.82634 136.71106 -65.1921 64.1642 5.33569 86.08899 11.13137 -2.39206 -12.36401 30.38527 5.7919 37.80373 -94.50518 5.73672 -1.21027 39.28331 -5.79987 -4.00977 -29.06457 -7.41159 -2.95017 -2.21221 44.25171 11.94553 0.5548 -34.10367 -6.86724 2.94166 2.17938
0.11439 0.02535 -0.11566 15.80277 -22.27491 -11.41702 37.3438 -8.0329 13.81632 -6.6467 6.70524 -0.82636 136.45289 -65.09517 64.16388 5.33378 86.09644 11.10492 -2.36352 -12.48929 30.51925 5.35196 36.32807 -97.45514 6.56057 -1.84074 39.17085 -5.85736 -3.56517 -29.03098 -7.41592 -2.95472 -2.21744 44.16688 11.82279 0.68607 -34.39713 -6.8407 2.96317 2.19118
0.11421 0.02483 -0.1189 15.54156 -22.17255 -11.46899 37.32203 -8.18956 13.72089 -6.81682 6.73332 -0.82637 136.19204 -64.97577 64.16334 5.33281 86.06881 11.09466 -2.376 -12.6027 30.68874 4.84957 34.74293 -101.20261 7.55558 -2.66177 39.07807 -5.88645 -3.05661 -29.00614 -7.41731 -2.96488 -2.22661 44.11555 11.7116 0.81068 -34.72186 -6.81165 2.98442 2.20301
0.11397 0.02441 -0.12209 15.29794 -22.10372 -11.52235 37.34448 -8.29742 13.65074 -6.97647 6.76462 -0.82638 135.92156 -64.8889 64.16325 5.33259 86.03961 11.04042 -2.29565 -12.69561 30.75804 4.44241 33.3506 -103.59014 8.25224 -3.1714 38.99042 -5.94116 -2.6846 -28.92003 -7.42595 -2.9684 -2.23059 44.08172 11.59165 0.91425 -34.98873 -6.78703 3.00546 2.21439
